<svg width="30" height="30" viewBox="0 0 30 30" fill="none" xmlns="http://www.w3.org/2000/svg">
<path d="M19.7617 16.6667C20.2877 16.6667 20.7141 16.2403 20.7141 15.7143C20.7141 15.1883 20.2877 14.7619 19.7617 14.7619C19.2357 14.7619 18.8093 15.1883 18.8093 15.7143C18.8093 16.2403 19.2357 16.6667 19.7617 16.6667Z" fill="white"/>
<path d="M19.7617 20.4762C20.2877 20.4762 20.7141 20.0498 20.7141 19.5238C20.7141 18.9978 20.2877 18.5714 19.7617 18.5714C19.2357 18.5714 18.8093 18.9978 18.8093 19.5238C18.8093 20.0498 19.2357 20.4762 19.7617 20.4762Z" fill="white"/>
<path d="M15.9522 15.7143C15.9522 16.2403 15.5258 16.6667 14.9998 16.6667C14.4738 16.6667 14.0474 16.2403 14.0474 15.7143C14.0474 15.1883 14.4738 14.7619 14.9998 14.7619C15.5258 14.7619 15.9522 15.1883 15.9522 15.7143Z" fill="white"/>
<path d="M15.9522 19.5238C15.9522 20.0498 15.5258 20.4762 14.9998 20.4762C14.4738 20.4762 14.0474 20.0498 14.0474 19.5238C14.0474 18.9978 14.4738 18.5714 14.9998 18.5714C15.5258 18.5714 15.9522 18.9978 15.9522 19.5238Z" fill="white"/>
<path d="M10.2379 16.6667C10.7639 16.6667 11.1903 16.2403 11.1903 15.7143C11.1903 15.1883 10.7639 14.7619 10.2379 14.7619C9.71193 14.7619 9.28553 15.1883 9.28553 15.7143C9.28553 16.2403 9.71193 16.6667 10.2379 16.6667Z" fill="white"/>
<path d="M10.2379 20.4762C10.7639 20.4762 11.1903 20.0498 11.1903 19.5238C11.1903 18.9978 10.7639 18.5714 10.2379 18.5714C9.71193 18.5714 9.28553 18.9978 9.28553 19.5238C9.28553 20.0498 9.71193 20.4762 10.2379 20.4762Z" fill="white"/>
<path fill-rule="evenodd" clip-rule="evenodd" d="M10.2379 5C10.6324 5 10.9522 5.3198 10.9522 5.71429V6.44069C11.5827 6.42856 12.2773 6.42856 13.0412 6.42857H16.9583C17.7223 6.42856 18.417 6.42856 19.0474 6.44069V5.71429C19.0474 5.3198 19.3672 5 19.7617 5C20.1562 5 20.476 5.3198 20.476 5.71429V6.50199C20.7236 6.52086 20.958 6.54459 21.1798 6.57441C22.2964 6.72454 23.2002 7.04084 23.9129 7.75356C24.6256 8.46629 24.9419 9.37005 25.0921 10.4866C25.2379 11.5716 25.2379 12.9579 25.2379 14.7081V16.7204C25.2379 18.4706 25.2379 19.857 25.0921 20.9419C24.9419 22.0585 24.6256 22.9623 23.9129 23.675C23.2002 24.3877 22.2964 24.704 21.1798 24.8542C20.0949 25 18.7086 25 16.9583 25H13.0413C11.2911 25 9.90475 25 8.81979 24.8542C7.7032 24.704 6.79944 24.3877 6.08671 23.675C5.37399 22.9623 5.05768 22.0585 4.90756 20.9419C4.76169 19.857 4.7617 18.4706 4.76172 16.7204V14.7082C4.7617 12.9579 4.76169 11.5716 4.90756 10.4866C5.05768 9.37005 5.37399 8.46629 6.08671 7.75356C6.79944 7.04084 7.7032 6.72454 8.81979 6.57441C9.04163 6.54459 9.27606 6.52086 9.52362 6.50199V5.71429C9.52362 5.3198 9.84342 5 10.2379 5ZM9.01015 7.99025C8.05197 8.11907 7.49992 8.36066 7.09687 8.76372C6.69381 9.16677 6.45222 9.71882 6.32339 10.677C6.30158 10.8393 6.28334 11.0101 6.26808 11.1905H23.7315C23.7163 11.0101 23.6981 10.8393 23.6762 10.677C23.5474 9.71882 23.3058 9.16677 22.9028 8.76372C22.4997 8.36066 21.9477 8.11907 20.9895 7.99025C20.0108 7.85866 18.7206 7.85714 16.9046 7.85714H13.0951C11.279 7.85714 9.98888 7.85866 9.01015 7.99025ZM6.19029 14.7619C6.19029 13.9486 6.1906 13.2407 6.20275 12.619H23.7969C23.809 13.2407 23.8093 13.9486 23.8093 14.7619V16.6667C23.8093 18.4827 23.8078 19.7728 23.6762 20.7516C23.5474 21.7098 23.3058 22.2618 22.9028 22.6649C22.4997 23.0679 21.9477 23.3095 20.9895 23.4383C20.0108 23.5699 18.7206 23.5714 16.9046 23.5714H13.0951C11.279 23.5714 9.98887 23.5699 9.01015 23.4383C8.05197 23.3095 7.49992 23.0679 7.09687 22.6649C6.69381 22.2618 6.45222 21.7098 6.32339 20.7516C6.19181 19.7728 6.19029 18.4827 6.19029 16.6667V14.7619Z" fill="white"/>
</svg>
