<svg width="30" height="30" viewBox="0 0 30 30" fill="none" xmlns="http://www.w3.org/2000/svg">
<path fill-rule="evenodd" clip-rule="evenodd" d="M12.6936 6H16.8064C18.6442 5.99998 20.0998 5.99997 21.239 6.15314C22.4114 6.31076 23.3604 6.64288 24.1088 7.39124C24.8571 8.13961 25.1892 9.08856 25.3469 10.261C25.5 11.4002 25.5 12.8558 25.5 14.6936V14.8064C25.5 16.6442 25.5 18.0998 25.3469 19.239C25.1892 20.4114 24.8571 21.3604 24.1088 22.1088C23.3604 22.8571 22.4114 23.1892 21.239 23.3469C20.0998 23.5 18.6442 23.5 16.8064 23.5H12.6936C10.8558 23.5 9.40019 23.5 8.26098 23.3469C7.08856 23.1892 6.13961 22.8571 5.39124 22.1088C4.64288 21.3604 4.31076 20.4114 4.15314 19.239C3.99997 18.0998 3.99998 16.6442 4 14.8064V14.6936C3.99998 12.8558 3.99997 11.4002 4.15314 10.261C4.31076 9.08856 4.64288 8.13961 5.39124 7.39124C6.13961 6.64288 7.08856 6.31076 8.26098 6.15314C9.40019 5.99997 10.8558 5.99998 12.6936 6ZM8.46085 7.63976C7.45476 7.77502 6.87511 8.02869 6.4519 8.4519C6.02869 8.87511 5.77502 9.45476 5.63976 10.4608C5.50159 11.4885 5.5 12.8432 5.5 14.75C5.5 16.6568 5.50159 18.0115 5.63976 19.0392C5.77502 20.0452 6.02869 20.6249 6.4519 21.0481C6.87511 21.4713 7.45476 21.725 8.46085 21.8602C9.48851 21.9984 10.8432 22 12.75 22H16.75C18.6568 22 20.0115 21.9984 21.0392 21.8602C22.0452 21.725 22.6249 21.4713 23.0481 21.0481C23.4713 20.6249 23.725 20.0452 23.8602 19.0392C23.9984 18.0115 24 16.6568 24 14.75C24 12.8432 23.9984 11.4885 23.8602 10.4608C23.725 9.45476 23.4713 8.87511 23.0481 8.4519C22.6249 8.02869 22.0452 7.77502 21.0392 7.63976C20.0115 7.50159 18.6568 7.5 16.75 7.5H12.75C10.8432 7.5 9.48851 7.50159 8.46085 7.63976ZM8.17383 10.2699C8.43901 9.95165 8.91193 9.90866 9.23014 10.1738L11.389 11.9729C12.322 12.7504 12.9697 13.2884 13.5166 13.6401C14.0459 13.9806 14.4049 14.0949 14.75 14.0949C15.0951 14.0949 15.4541 13.9806 15.9834 13.6401C16.5303 13.2884 17.178 12.7504 18.111 11.9729L20.2699 10.1738C20.5881 9.90866 21.061 9.95165 21.3262 10.2699C21.5913 10.5881 21.5483 11.061 21.2301 11.3262L19.0336 13.1566C18.1473 13.8952 17.4289 14.4939 16.7948 14.9017C16.1343 15.3265 15.4911 15.5949 14.75 15.5949C14.0089 15.5949 13.3657 15.3265 12.7052 14.9017C12.0711 14.4939 11.3527 13.8952 10.4664 13.1566L8.26986 11.3262C7.95165 11.061 7.90866 10.5881 8.17383 10.2699Z" fill="white"/>
</svg>
