<svg width="30" height="30" viewBox="0 0 30 30" fill="none" xmlns="http://www.w3.org/2000/svg">
<path fill-rule="evenodd" clip-rule="evenodd" d="M15.325 9.4904C13.5345 7.88846 11.5295 7.66437 9.90466 8.40711C8.18851 9.19156 7 11.0131 7 13.1134C7 15.1776 7.85999 16.7523 8.98771 18.0222C9.89081 19.0391 10.9962 19.8902 11.9724 20.6419C12.1937 20.8122 12.4084 20.9775 12.6125 21.1385C13.0092 21.4512 13.4351 21.7847 13.8666 22.0368C14.298 22.2889 14.7903 22.4938 15.325 22.4938C15.8597 22.4938 16.352 22.2889 16.7834 22.0368C17.2149 21.7847 17.6408 21.4512 18.0375 21.1385C18.2416 20.9775 18.4563 20.8122 18.6776 20.6419C19.6538 19.8902 20.7592 19.0391 21.6623 18.0222C22.79 16.7523 23.65 15.1776 23.65 13.1134C23.65 11.0131 22.4615 9.19156 20.7453 8.40711C19.1205 7.66437 17.1155 7.88846 15.325 9.4904Z" fill="white"/>
</svg>
