<svg width="30" height="30" viewBox="0 0 30 30" fill="none" xmlns="http://www.w3.org/2000/svg">
<path fill-rule="evenodd" clip-rule="evenodd" d="M10.3876 9.46359C9.10283 10.0509 8.16163 11.4477 8.16163 13.1134C8.16163 14.8151 8.858 16.1267 9.85628 17.2508C10.679 18.1773 11.675 18.9451 12.6464 19.694C12.8771 19.8718 13.1064 20.0486 13.3317 20.2262C13.7391 20.5474 14.1024 20.8292 14.4527 21.0339C14.8032 21.2387 15.0852 21.3322 15.325 21.3322C15.5648 21.3322 15.8468 21.2387 16.1973 21.0339C16.5476 20.8292 16.9109 20.5474 17.3183 20.2262C17.5436 20.0486 17.7729 19.8718 18.0036 19.694C18.975 18.9451 19.9709 18.1773 20.7937 17.2508C21.792 16.1267 22.4884 14.8151 22.4884 13.1134C22.4884 11.4477 21.5472 10.0509 20.2624 9.46359C19.0143 8.89307 17.3372 9.04415 15.7435 10.7C15.634 10.8137 15.4829 10.878 15.325 10.878C15.1671 10.878 15.016 10.8137 14.9065 10.7C13.3128 9.04415 11.6357 8.89307 10.3876 9.46359ZM15.325 9.4904C13.5345 7.88846 11.5295 7.66437 9.90466 8.40711C8.18851 9.19156 7 11.0131 7 13.1134C7 15.1776 7.85999 16.7523 8.98771 18.0222C9.89081 19.0391 10.9962 19.8902 11.9724 20.6419C12.1937 20.8122 12.4084 20.9775 12.6125 21.1385C13.0092 21.4512 13.4351 21.7847 13.8666 22.0368C14.298 22.2889 14.7903 22.4938 15.325 22.4938C15.8597 22.4938 16.352 22.2889 16.7834 22.0368C17.2149 21.7847 17.6408 21.4512 18.0375 21.1385C18.2416 20.9775 18.4563 20.8122 18.6776 20.6418C19.6538 19.8902 20.7592 19.0391 21.6623 18.0222C22.79 16.7523 23.65 15.1776 23.65 13.1134C23.65 11.0131 22.4615 9.19156 20.7453 8.40711C19.1205 7.66437 17.1155 7.88846 15.325 9.4904Z" fill="white"/>
</svg>
