<svg width="30" height="30" viewBox="0 0 30 30" fill="none" xmlns="http://www.w3.org/2000/svg">
     <path fill-rule="evenodd" clip-rule="evenodd" d="M9.43687 8.48397C7.98935 9.14564 6.92891 10.7194 6.92891 12.5961C6.92891 14.5134 7.7135 15.9912 8.83825 17.2577C9.76526 18.3016 10.8874 19.1667 11.9818 20.0104C12.2418 20.2108 12.5001 20.41 12.7539 20.6101C13.2129 20.9719 13.6224 21.2895 14.017 21.5201C14.4118 21.7508 14.7297 21.8562 14.9998 21.8562C15.2699 21.8562 15.5878 21.7508 15.9826 21.5201C16.3772 21.2895 16.7867 20.9719 17.2456 20.6101C17.4995 20.41 17.7578 20.2108 18.0178 20.0104C19.1122 19.1667 20.2343 18.3016 21.1613 17.2577C22.2861 15.9912 23.0707 14.5134 23.0707 12.5961C23.0707 10.7194 22.0102 9.14564 20.5627 8.48397C19.1565 7.84117 17.2669 8.0114 15.4713 9.877C15.3479 10.0052 15.1777 10.0776 14.9998 10.0776C14.8219 10.0776 14.6517 10.0052 14.5283 9.877C12.7327 8.0114 10.8431 7.84117 9.43687 8.48397ZM14.9998 8.51418C12.9825 6.70929 10.7235 6.45681 8.89276 7.29364C6.9592 8.17748 5.62012 10.2298 5.62012 12.5961C5.62012 14.9219 6.58906 16.6961 7.85965 18.1268C8.87715 19.2726 10.1226 20.2315 11.2225 21.0784C11.4718 21.2704 11.7137 21.4566 11.9437 21.6379C12.3906 21.9903 12.8704 22.366 13.3567 22.6501C13.8427 22.9341 14.3974 23.165 14.9998 23.165C15.6022 23.165 16.1569 22.9341 16.6429 22.6501C17.1292 22.366 17.609 21.9903 18.0559 21.6379C18.2859 21.4566 18.5278 21.2704 18.7771 21.0784C19.877 20.2315 21.1224 19.2726 22.1399 18.1268C23.4105 16.6961 24.3795 14.9219 24.3795 12.5961C24.3795 10.2298 23.0404 8.17748 21.1068 7.29364C19.2761 6.45681 17.0171 6.70929 14.9998 8.51418Z" fill="#D22366"/>
     </svg>