<svg width="30" height="30" viewBox="0 0 30 30" fill="none" xmlns="http://www.w3.org/2000/svg">
<path fill-rule="evenodd" clip-rule="evenodd" d="M9.43687 8.48403C7.98935 9.1457 6.92891 10.7195 6.92891 12.5962C6.92891 14.5135 7.7135 15.9913 8.83825 17.2578C9.76526 18.3016 10.8874 19.1668 11.9818 20.0105C12.2418 20.2109 12.5001 20.4101 12.7539 20.6102C13.2129 20.972 13.6224 21.2895 14.017 21.5202C14.4118 21.7509 14.7297 21.8562 14.9998 21.8562C15.2699 21.8562 15.5878 21.7509 15.9826 21.5202C16.3772 21.2895 16.7867 20.972 17.2456 20.6102C17.4995 20.4101 17.7578 20.2109 18.0178 20.0105C19.1122 19.1668 20.2343 18.3016 21.1613 17.2578C22.2861 15.9913 23.0707 14.5135 23.0707 12.5962C23.0707 10.7195 22.0102 9.1457 20.5627 8.48403C19.1565 7.84123 17.2669 8.01146 15.4713 9.87706C15.3479 10.0052 15.1777 10.0777 14.9998 10.0777C14.8219 10.0777 14.6517 10.0052 14.5283 9.87706C12.7327 8.01146 10.8431 7.84123 9.43687 8.48403ZM14.9998 8.51424C12.9825 6.70935 10.7235 6.45687 8.89276 7.2937C6.9592 8.17754 5.62012 10.2298 5.62012 12.5962C5.62012 14.9219 6.58906 16.6961 7.85965 18.1269C8.87715 19.2726 10.1226 20.2315 11.2225 21.0784C11.4718 21.2704 11.7137 21.4566 11.9437 21.638C12.3906 21.9903 12.8704 22.366 13.3567 22.6502C13.8427 22.9342 14.3974 23.165 14.9998 23.165C15.6022 23.165 16.1569 22.9342 16.6429 22.6502C17.1292 22.366 17.609 21.9903 18.0559 21.638C18.2859 21.4566 18.5278 21.2704 18.7771 21.0784C19.877 20.2315 21.1224 19.2726 22.1399 18.1269C23.4105 16.6961 24.3795 14.9219 24.3795 12.5962C24.3795 10.2298 23.0404 8.17754 21.1068 7.2937C19.2761 6.45687 17.0171 6.70935 14.9998 8.51424Z" fill="#D22366"/>
<path d="M6.92891 12.5962C6.92891 10.7195 7.98935 9.1457 9.43687 8.48403C10.8431 7.84123 12.7327 8.01146 14.5283 9.87706C14.6517 10.0052 14.8219 10.0777 14.9998 10.0777C15.1777 10.0777 15.3479 10.0052 15.4713 9.87706C17.2669 8.01146 19.1565 7.84123 20.5627 8.48403C22.0102 9.1457 23.0707 10.7195 23.0707 12.5962C23.0707 14.5135 22.2861 15.9913 21.1613 17.2578C20.2343 18.3016 19.1122 19.1668 18.0178 20.0105C17.7578 20.2109 17.4995 20.4101 17.2456 20.6102C16.7867 20.972 16.3772 21.2895 15.9826 21.5202C15.5878 21.7509 15.2699 21.8562 14.9998 21.8562C14.7297 21.8562 14.4118 21.7509 14.017 21.5202C13.6224 21.2895 13.2129 20.972 12.7539 20.6102C12.5001 20.4101 12.2418 20.2109 11.9818 20.0105C10.8874 19.1668 9.76526 18.3016 8.83825 17.2578C7.7135 15.9913 6.92891 14.5135 6.92891 12.5962Z" fill="#D22366"/>
</svg>
