<svg width="30" height="30" viewBox="0 0 30 30" fill="none" xmlns="http://www.w3.org/2000/svg">
<path fill-rule="evenodd" clip-rule="evenodd" d="M23.5 9.75C23.5 10.1642 23.1642 10.5 22.75 10.5L6.75 10.5C6.33579 10.5 6 10.1642 6 9.75C6 9.33579 6.33579 9 6.75 9L22.75 9C23.1642 9 23.5 9.33579 23.5 9.75Z" fill="white"/>
<path fill-rule="evenodd" clip-rule="evenodd" d="M23.5 14.75C23.5 15.1642 23.1642 15.5 22.75 15.5L6.75 15.5C6.33579 15.5 6 15.1642 6 14.75C6 14.3358 6.33579 14 6.75 14L22.75 14C23.1642 14 23.5 14.3358 23.5 14.75Z" fill="white"/>
<path fill-rule="evenodd" clip-rule="evenodd" d="M23.5 19.75C23.5 20.1642 23.1642 20.5 22.75 20.5L6.75 20.5C6.33579 20.5 6 20.1642 6 19.75C6 19.3358 6.33579 19 6.75 19L22.75 19C23.1642 19 23.5 19.3358 23.5 19.75Z" fill="white"/>
</svg>
