<svg width="30" height="30" viewBox="0 0 30 30" fill="none" xmlns="http://www.w3.org/2000/svg">
<path d="M17.6953 4C16.3278 3.99998 15.2254 3.99996 14.3585 4.11652C13.4584 4.23754 12.7005 4.49643 12.0986 5.09835C11.5736 5.62328 11.3084 6.26836 11.1692 7.02635C11.0339 7.76291 11.008 8.6643 11.002 9.74583C10.9997 10.16 11.3336 10.4977 11.7478 10.5C12.162 10.5023 12.4996 10.1684 12.5019 9.75418C12.508 8.66068 12.5364 7.8856 12.6445 7.29735C12.7486 6.73054 12.9158 6.40246 13.1592 6.15901C13.436 5.88225 13.8246 5.7018 14.5583 5.60315C15.3137 5.50159 16.3148 5.5 17.7502 5.5H18.7502C20.1856 5.5 21.1867 5.50159 21.9421 5.60315C22.6759 5.7018 23.0644 5.88225 23.3412 6.15901C23.618 6.43577 23.7984 6.82435 23.8971 7.55812C23.9986 8.31347 24.0002 9.31459 24.0002 10.75V18.75C24.0002 20.1854 23.9986 21.1865 23.8971 21.9419C23.7984 22.6757 23.618 23.0642 23.3412 23.341C23.0644 23.6178 22.6759 23.7982 21.9421 23.8969C21.1867 23.9984 20.1856 24 18.7502 24H17.7502C16.3148 24 15.3137 23.9984 14.5583 23.8969C13.8246 23.7982 13.436 23.6178 13.1592 23.341C12.9158 23.0975 12.7486 22.7695 12.6445 22.2027C12.5364 21.6144 12.508 20.8393 12.5019 19.7458C12.4996 19.3316 12.162 18.9977 11.7478 19C11.3336 19.0023 10.9997 19.34 11.002 19.7542C11.008 20.8357 11.0339 21.7371 11.1692 22.4736C11.3084 23.2316 11.5736 23.8767 12.0986 24.4017C12.7005 25.0036 13.4584 25.2625 14.3585 25.3835C15.2254 25.5 16.3278 25.5 17.6953 25.5H18.8051C20.1727 25.5 21.275 25.5 22.142 25.3835C23.0421 25.2625 23.7999 25.0036 24.4019 24.4017C25.0038 23.7997 25.2627 23.0419 25.3837 22.1418C25.5003 21.2748 25.5002 20.1725 25.5002 18.8049V10.6951C25.5002 9.32754 25.5003 8.22522 25.3837 7.35825C25.2627 6.45814 25.0038 5.70027 24.4019 5.09835C23.7999 4.49643 23.0421 4.23754 22.142 4.11652C21.275 3.99996 20.1727 3.99998 18.8051 4H17.6953Z" fill="white"/>
<path d="M17.75 14C18.1642 14 18.5 14.3358 18.5 14.75C18.5 15.1642 18.1642 15.5 17.75 15.5H6.77744L8.73809 17.1806C9.05259 17.4501 9.08901 17.9236 8.81944 18.2381C8.54988 18.5526 8.0764 18.589 7.76191 18.3194L4.26191 15.3194C4.09567 15.177 4 14.9689 4 14.75C4 14.5311 4.09567 14.323 4.26191 14.1806L7.76191 11.1806C8.0764 10.911 8.54988 10.9474 8.81944 11.2619C9.08901 11.5764 9.05259 12.0499 8.73809 12.3194L6.77744 14H17.75Z" fill="white"/>
</svg>
