<svg width="30" height="30" viewBox="0 0 30 30" fill="none" xmlns="http://www.w3.org/2000/svg">
<path fill-rule="evenodd" clip-rule="evenodd" d="M17.25 6.5C13.7982 6.5 11 9.29822 11 12.75C11 16.2018 13.7982 19 17.25 19C20.7018 19 23.5 16.2018 23.5 12.75C23.5 9.29822 20.7018 6.5 17.25 6.5ZM9.5 12.75C9.5 8.46979 12.9698 5 17.25 5C21.5302 5 25 8.46979 25 12.75C25 17.0302 21.5302 20.5 17.25 20.5C15.379 20.5 13.6629 19.837 12.3237 18.7331C12.3101 18.7493 12.2956 18.7651 12.2803 18.7803L9.81066 21.25L10.7803 22.2197C11.0732 22.5126 11.0732 22.9874 10.7803 23.2803C10.4874 23.5732 10.0126 23.5732 9.71967 23.2803L8.75 22.3107L7.81066 23.25L8.78033 24.2197C9.07322 24.5126 9.07322 24.9874 8.78033 25.2803C8.48744 25.5732 8.01256 25.5732 7.71967 25.2803L6.75 24.3107L6.28033 24.7803C5.98744 25.0732 5.51256 25.0732 5.21967 24.7803C4.92678 24.4874 4.92678 24.0126 5.21967 23.7197L6.21937 22.72L11.2197 17.7197C11.2349 17.7044 11.2507 17.6899 11.2669 17.6763C10.163 16.3371 9.5 14.621 9.5 12.75ZM17.25 11.5C16.5596 11.5 16 12.0596 16 12.75C16 13.4404 16.5596 14 17.25 14C17.9404 14 18.5 13.4404 18.5 12.75C18.5 12.0596 17.9404 11.5 17.25 11.5ZM14.5 12.75C14.5 11.2312 15.7312 10 17.25 10C18.7688 10 20 11.2312 20 12.75C20 14.2688 18.7688 15.5 17.25 15.5C15.7312 15.5 14.5 14.2688 14.5 12.75Z" fill="white"/>
</svg>
