<svg width="30" height="30" viewBox="0 0 30 30" fill="none" xmlns="http://www.w3.org/2000/svg">
<path fill-rule="evenodd" clip-rule="evenodd" d="M24 14.0975V19.0909C24 22.1875 24 23.7358 23.2659 24.4123C22.9158 24.735 22.4739 24.9377 22.0031 24.9915C21.016 25.1045 19.8633 24.0849 17.5578 22.0458C16.5388 21.1445 16.0292 20.6938 15.4397 20.5751C15.1494 20.5166 14.8506 20.5166 14.5603 20.5751C13.9708 20.6938 13.4612 21.1445 12.4422 22.0458C10.1367 24.0849 8.98402 25.1045 7.99692 24.9915C7.52615 24.9377 7.08421 24.735 6.73411 24.4123C6 23.7358 6 22.1875 6 19.0909V14.0975C6 9.80891 6 7.6646 7.31802 6.3323C8.63604 5 10.7574 5 15 5C19.2426 5 21.364 5 22.682 6.3323C24 7.6646 24 9.80891 24 14.0975ZM11.25 9C11.25 8.58579 11.5858 8.25 12 8.25H18C18.4142 8.25 18.75 8.58579 18.75 9C18.75 9.41421 18.4142 9.75 18 9.75H12C11.5858 9.75 11.25 9.41421 11.25 9Z" fill="white"/>
</svg>
