<svg width="30" height="30" viewBox="0 0 30 30" fill="none" xmlns="http://www.w3.org/2000/svg">
<path fill-rule="evenodd" clip-rule="evenodd" d="M14.5698 7.0407C10.4116 7.0407 7.0407 10.4116 7.0407 14.5698C7.0407 18.728 10.4116 22.0988 14.5698 22.0988C18.728 22.0988 22.0988 18.728 22.0988 14.5698C22.0988 10.4116 18.728 7.0407 14.5698 7.0407ZM5.75 14.5698C5.75 9.69874 9.69874 5.75 14.5698 5.75C19.4408 5.75 23.3895 9.69874 23.3895 14.5698C23.3895 16.773 22.5817 18.7875 21.246 20.3333L24.061 23.1483C24.313 23.4003 24.313 23.809 24.061 24.061C23.809 24.313 23.4003 24.313 23.1483 24.061L20.3333 21.246C18.7875 22.5817 16.773 23.3895 14.5698 23.3895C9.69874 23.3895 5.75 19.4408 5.75 14.5698Z" fill="#C7C9CF"/>
</svg>
