<svg width="30" height="30" viewBox="0 0 30 30" fill="none" xmlns="http://www.w3.org/2000/svg">
<path d="M18.7803 12.7803C19.0732 12.4874 19.0732 12.0126 18.7803 11.7197C18.4874 11.4268 18.0126 11.4268 17.7197 11.7197L13.25 16.1893L11.7803 14.7197C11.4874 14.4268 11.0126 14.4268 10.7197 14.7197C10.4268 15.0126 10.4268 15.4874 10.7197 15.7803L12.7197 17.7803C13.0126 18.0732 13.4874 18.0732 13.7803 17.7803L18.7803 12.7803Z" fill="#34CC33"/>
<path fill-rule="evenodd" clip-rule="evenodd" d="M14.75 4C8.81294 4 4 8.81294 4 14.75C4 20.6871 8.81294 25.5 14.75 25.5C20.6871 25.5 25.5 20.6871 25.5 14.75C25.5 8.81294 20.6871 4 14.75 4ZM5.5 14.75C5.5 9.64137 9.64137 5.5 14.75 5.5C19.8586 5.5 24 9.64137 24 14.75C24 19.8586 19.8586 24 14.75 24C9.64137 24 5.5 19.8586 5.5 14.75Z" fill="#34CC33"/>
</svg>
