<svg width="30" height="30" viewBox="0 0 30 30" fill="none" xmlns="http://www.w3.org/2000/svg">
<path fill-rule="evenodd" clip-rule="evenodd" d="M14.75 5C12.1266 5 10 7.12665 10 9.75C10 12.3734 12.1266 14.5 14.75 14.5C17.3734 14.5 19.5 12.3734 19.5 9.75C19.5 7.12665 17.3734 5 14.75 5ZM11.5 9.75C11.5 7.95507 12.9551 6.5 14.75 6.5C16.5449 6.5 18 7.95507 18 9.75C18 11.5449 16.5449 13 14.75 13C12.9551 13 11.5 11.5449 11.5 9.75Z" fill="white"/>
<path fill-rule="evenodd" clip-rule="evenodd" d="M14.75 16C12.7107 16 10.8275 16.4708 9.42815 17.2704C8.05 18.0579 7 19.2601 7 20.75C7 22.2399 8.05 23.4421 9.42815 24.2296C10.8275 25.0292 12.7107 25.5 14.75 25.5C16.7893 25.5 18.6725 25.0292 20.0719 24.2296C21.45 23.4421 22.5 22.2399 22.5 20.75C22.5 19.2601 21.45 18.0579 20.0719 17.2704C18.6725 16.4708 16.7893 16 14.75 16ZM8.5 20.75C8.5 20.0307 9.01701 19.233 10.1724 18.5728C11.3065 17.9247 12.9233 17.5 14.75 17.5C16.5767 17.5 18.1935 17.9247 19.3276 18.5728C20.483 19.233 21 20.0307 21 20.75C21 21.4693 20.483 22.267 19.3276 22.9272C18.1935 23.5753 16.5767 24 14.75 24C12.9233 24 11.3065 23.5753 10.1724 22.9272C9.01701 22.267 8.5 21.4693 8.5 20.75Z" fill="white"/>
</svg>
