<svg width="40" height="40" viewBox="0 0 40 40" fill="none" xmlns="http://www.w3.org/2000/svg">
<path d="M6.66675 20.0348C6.66675 26.8965 11.8229 32.5507 18.4625 33.315C19.4422 33.4278 20.3918 33.0102 21.0892 32.311C21.9604 31.4375 21.9604 30.0212 21.0892 29.1476C20.3918 28.4485 19.8234 27.4055 20.3493 26.5691C22.4515 23.2256 33.3334 30.904 33.3334 20.0348C33.3334 12.6518 27.3639 6.66667 20.0001 6.66667C12.6363 6.66667 6.66675 12.6518 6.66675 20.0348Z" stroke="#686873"/>
<circle cx="27.3333" cy="19.3333" r="2" stroke="#686873"/>
<circle cx="12.6667" cy="19.3333" r="2" stroke="#686873"/>
<path d="M18.78 13.333C18.78 14.4376 17.8846 15.333 16.78 15.333C15.6755 15.333 14.78 14.4376 14.78 13.333C14.78 12.2285 15.6755 11.333 16.78 11.333C17.8846 11.333 18.78 12.2285 18.78 13.333Z" stroke="#686873"/>
<path d="M25.3333 13.3333C25.3333 14.4379 24.4378 15.3333 23.3333 15.3333C22.2287 15.3333 21.3333 14.4379 21.3333 13.3333C21.3333 12.2288 22.2287 11.3333 23.3333 11.3333C24.4378 11.3333 25.3333 12.2288 25.3333 13.3333Z" stroke="#686873"/>
</svg>
