<svg width="40" height="40" viewBox="0 0 40 40" fill="none" xmlns="http://www.w3.org/2000/svg">
<path d="M17.5534 10.3723L18.2226 10.8459C18.7423 11.2137 19.3634 11.4113 20.0001 11.4113C20.6368 11.4113 21.2579 11.2137 21.7777 10.8459L22.4468 10.3723C23.4019 9.69633 24.5432 9.33333 25.7133 9.33333H26.53C27.0689 9.33333 27.6133 9.36731 28.1212 9.54745C31.2981 10.6742 33.4834 14.7934 33.3254 24.1368C33.2935 26.0194 32.853 28.1 31.1544 28.9123C30.6251 29.1654 30.0045 29.3333 29.2978 29.3333C28.4498 29.3333 27.7763 29.0916 27.2566 28.7509C26.038 27.9523 25.1451 26.6186 23.8518 25.9478C23.0732 25.5441 22.2089 25.3333 21.3319 25.3333H18.6683C17.7912 25.3333 16.927 25.5441 16.1484 25.9478C14.855 26.6186 13.9621 27.9523 12.7436 28.7509C12.2238 29.0916 11.5504 29.3333 10.7024 29.3333C9.99564 29.3333 9.37503 29.1654 8.84572 28.9123C7.14715 28.1 6.70664 26.0194 6.6748 24.1368C6.51673 14.7934 8.70202 10.6742 11.8789 9.54745C12.3869 9.36731 12.9313 9.33333 13.4702 9.33333H14.2868C15.4569 9.33333 16.5982 9.69633 17.5534 10.3723Z" stroke="#686873" stroke-linecap="round"/>
<path d="M14 16V20M12 18L16 18" stroke="#686873" stroke-linecap="round"/>
<path d="M29.3333 17.6667C29.3333 18.219 28.8855 18.6667 28.3333 18.6667C27.781 18.6667 27.3333 18.219 27.3333 17.6667C27.3333 17.1144 27.781 16.6667 28.3333 16.6667C28.8855 16.6667 29.3333 17.1144 29.3333 17.6667Z" fill="#686873"/>
<path d="M25.3333 17.6667C25.3333 18.219 24.8855 18.6667 24.3333 18.6667C23.781 18.6667 23.3333 18.219 23.3333 17.6667C23.3333 17.1144 23.781 16.6667 24.3333 16.6667C24.8855 16.6667 25.3333 17.1144 25.3333 17.6667Z" fill="#686873"/>
<path d="M26.3333 14.6667C26.8855 14.6667 27.3333 15.1144 27.3333 15.6667C27.3333 16.219 26.8855 16.6667 26.3333 16.6667C25.781 16.6667 25.3333 16.219 25.3333 15.6667C25.3333 15.1144 25.781 14.6667 26.3333 14.6667Z" fill="#686873"/>
<path d="M26.3333 18.6667C26.8855 18.6667 27.3333 19.1144 27.3333 19.6667C27.3333 20.219 26.8855 20.6667 26.3333 20.6667C25.781 20.6667 25.3333 20.219 25.3333 19.6667C25.3333 19.1144 25.781 18.6667 26.3333 18.6667Z" fill="#686873"/>
</svg>
