<svg width="40" height="40" viewBox="0 0 40 40" fill="none" xmlns="http://www.w3.org/2000/svg">
<path d="M31.0821 20.863L31.7723 18.2872C32.5779 15.2805 32.9807 13.7771 32.6774 12.476C32.4379 11.4488 31.8991 10.5156 31.1292 9.79451C30.1542 8.88127 28.6508 8.47844 25.644 7.67278C22.6372 6.86712 21.1338 6.46428 19.8328 6.76764C18.8055 7.00717 17.8723 7.54594 17.1513 8.31583C16.3694 9.15065 15.9616 10.3728 15.3549 12.5942C15.253 12.9672 15.1455 13.3685 15.0296 13.8008L15.0295 13.801L14.3394 16.3768C13.5337 19.3836 13.1309 20.887 13.4342 22.188C13.6738 23.2153 14.2125 24.1485 14.9824 24.8696C15.9575 25.7828 17.4608 26.1856 20.4676 26.9913C23.1777 27.7175 24.6665 28.1164 25.8866 27.9659C26.0201 27.9494 26.1505 27.9264 26.2788 27.8964C27.3061 27.6569 28.2393 27.1181 28.9603 26.3482C29.8736 25.3732 30.2764 23.8698 31.0821 20.863Z" stroke="#686873"/>
<path d="M25.8867 27.9655C25.6087 28.8168 25.1199 29.5869 24.4627 30.2025C23.4877 31.1157 21.9843 31.5186 18.9775 32.3242C15.9707 33.1299 14.4673 33.5327 13.1663 33.2294C12.139 32.9898 11.2058 32.4511 10.4848 31.6812C9.57153 30.7061 9.1687 29.2027 8.36304 26.196L7.67286 23.6202C6.86719 20.6134 6.46436 19.11 6.76772 17.809C7.00725 16.7817 7.54602 15.8485 8.3159 15.1274C9.29095 14.2142 10.7943 13.8114 13.8011 13.0057C14.37 12.8533 14.885 12.7153 15.355 12.5938" stroke="#686873"/>
<path d="M19.7024 17.3333L26.1419 19.0588" stroke="#686873" stroke-linecap="round"/>
<path d="M18.6667 21.1969L22.5305 22.2322" stroke="#686873" stroke-linecap="round"/>
</svg>
