<svg width="40" height="40" viewBox="0 0 40 40" fill="none" xmlns="http://www.w3.org/2000/svg">
<path d="M28 20H26.9314C25.8252 20 25.2722 20 24.8137 20.2596C24.3551 20.5192 24.0706 20.9935 23.5014 21.9421L23.4603 22.0107C22.9301 22.8943 22.665 23.3361 22.2793 23.3289C21.8936 23.3216 21.6453 22.8702 21.1487 21.9672L18.8989 17.8768C18.4359 17.0349 18.2043 16.614 17.8346 16.594C17.4648 16.574 17.1893 16.9676 16.6383 17.7548L16.261 18.2938C15.6757 19.1299 15.3831 19.5479 14.949 19.774C14.5148 20 14.0046 20 12.984 20H12" stroke="#686873" stroke-linecap="round"/>
<path d="M15.9491 29.8276L16.265 29.4401L15.9491 29.8276ZM20.0001 11.3317L19.634 11.6723C19.7286 11.7739 19.8612 11.8317 20.0001 11.8317C20.1389 11.8317 20.2715 11.7739 20.3661 11.6723L20.0001 11.3317ZM24.0511 29.8277L24.3671 30.2151L24.0511 29.8277ZM16.265 29.4401C14.3177 27.8521 12.0288 25.7581 10.231 23.4539C8.42362 21.1376 7.16675 18.6775 7.16675 16.3472H6.16675C6.16675 19.0136 7.58949 21.6942 9.44255 24.0691C11.3051 26.4562 13.6573 28.604 15.6331 30.2151L16.265 29.4401ZM7.16675 16.3472C7.16675 12.557 8.92204 9.90671 11.2756 8.92758C13.6154 7.95411 16.7354 8.557 19.634 11.6723L20.3661 10.9911C17.265 7.65821 13.7183 6.82825 10.8914 8.00429C8.07823 9.17467 6.16675 12.2562 6.16675 16.3472H7.16675ZM24.3671 30.2151C26.3428 28.604 28.6951 26.4562 30.5576 24.0691C32.4107 21.6942 33.8334 19.0136 33.8334 16.3472H32.8334C32.8334 18.6775 31.5765 21.1376 29.7692 23.454C27.9714 25.7582 25.6825 27.8522 23.7351 29.4402L24.3671 30.2151ZM33.8334 16.3472C33.8334 12.2561 31.9219 9.17453 29.1087 8.00419C26.2819 6.82819 22.7352 7.65822 19.634 10.9911L20.3661 11.6723C23.2648 8.55699 26.3847 7.95405 28.7246 8.92748C31.0781 9.90657 32.8334 12.5569 32.8334 16.3472H33.8334ZM15.6331 30.2151C17.3684 31.6302 18.4006 32.5 20.0001 32.5L20.0001 31.5C18.8255 31.5 18.0817 30.9216 16.265 29.4401L15.6331 30.2151ZM23.7351 29.4402C21.9185 30.9216 21.1747 31.5 20.0001 31.5L20.0001 32.5C21.5996 32.5 22.6318 31.6302 24.3671 30.2151L23.7351 29.4402Z" fill="#686873"/>
</svg>
