<svg width="30" height="30" viewBox="0 0 30 30" fill="none" xmlns="http://www.w3.org/2000/svg">
<rect width="30" height="30" rx="15" fill="#F7F7F7"/>
<ellipse cx="13.4666" cy="10.4" rx="3.06667" ry="3.06667" stroke="#444444"/>
<path d="M19.6002 19.2167C19.6002 21.122 19.6002 22.6667 13.4668 22.6667C7.3335 22.6667 7.3335 21.122 7.3335 19.2167C7.3335 17.3113 10.0795 15.7667 13.4668 15.7667C16.8542 15.7667 19.6002 17.3113 19.6002 19.2167Z" stroke="#444444"/>
<path d="M20.3667 7.33331C20.3667 7.33331 21.9 8.25331 21.9 10.4C21.9 12.5466 20.3667 13.4666 20.3667 13.4666" stroke="#444444" stroke-linecap="round"/>
<path d="M18.8335 8.86664C18.8335 8.86664 19.6002 9.32664 19.6002 10.4C19.6002 11.4733 18.8335 11.9333 18.8335 11.9333" stroke="#444444" stroke-linecap="round"/>
</svg>
