<svg width="40" height="40" viewBox="0 0 40 40" fill="none" xmlns="http://www.w3.org/2000/svg">
<path d="M16 22.9804V26.6667C16 30.3486 18.9848 33.3333 22.6667 33.3333H23.8431C26.3588 33.3333 28.4793 31.6414 29.1287 29.3333" stroke="#686873"/>
<path d="M11.2382 8H11.1159C10.6988 8 10.4902 8 10.3144 8.01555C8.38358 8.18629 6.85304 9.71684 6.6823 11.6477C6.66675 11.8235 6.66675 12.0321 6.66675 12.4492V13.6471C6.66675 18.8017 10.8454 22.9804 16.0001 22.9804C20.9443 22.9804 24.9525 18.9723 24.9525 14.028V12.4492C24.9525 12.0321 24.9525 11.8235 24.9369 11.6477C24.7662 9.71684 23.2356 8.18629 21.3048 8.01555C21.129 8 20.9204 8 20.5033 8H20.381" stroke="#686873" stroke-linecap="round"/>
<ellipse cx="29.3333" cy="25.3333" rx="4" ry="4" stroke="#686873"/>
<path d="M20 6.66667V9.33334" stroke="#686873" stroke-linecap="round"/>
<path d="M12 6.66667V9.33334" stroke="#686873" stroke-linecap="round"/>
</svg>
