<svg width="40" height="40" viewBox="0 0 40 40" fill="none" xmlns="http://www.w3.org/2000/svg">
<path d="M9.33325 18.6667H25.3333C27.8474 18.6667 29.1045 18.6667 29.8855 19.4477C30.6666 20.2288 30.6666 21.4858 30.6666 24V25.3333C30.6666 29.1046 30.6666 30.9902 29.495 32.1618C28.3234 33.3333 26.4378 33.3333 22.6666 33.3333H17.3333C13.562 33.3333 11.6764 33.3333 10.5048 32.1618C9.33325 30.9902 9.33325 29.1046 9.33325 25.3333V18.6667Z" stroke="#686873"/>
<path d="M9.33529 18.6663C8.69023 16.2589 8.3677 15.0552 8.6451 14.02C8.82683 13.3417 9.18389 12.7233 9.68038 12.2268C10.4383 11.4689 11.6419 11.1464 14.0493 10.5013L23.3866 7.99942C24.2843 7.7589 24.7331 7.63864 25.1262 7.61287C26.7406 7.50706 28.2598 8.38415 28.9753 9.83515C29.1496 10.1885 29.2698 10.6373 29.5103 11.535C29.5905 11.8342 29.6306 11.9838 29.6392 12.1148C29.6745 12.6529 29.3821 13.1593 28.8984 13.3979C28.7807 13.4559 28.631 13.496 28.3318 13.5762L9.33529 18.6663Z" stroke="#686873"/>
<path d="M23.6007 7.92197L22.7504 15.0517" stroke="#686873" stroke-linecap="round"/>
<path d="M15.2294 10.1651L14.379 17.2947" stroke="#686873" stroke-linecap="round"/>
<path d="M22.6667 26C22.6667 25.437 22.1371 25.0573 21.0779 24.298C20.0042 23.5282 19.4674 23.1434 19.0671 23.4259C18.6667 23.7085 18.6667 24.4723 18.6667 26C18.6667 27.5276 18.6667 28.2915 19.0671 28.5741C19.4674 28.8566 20.0042 28.4718 21.0779 27.702C22.1371 26.9427 22.6667 26.563 22.6667 26Z" stroke="#686873" stroke-linecap="round"/>
</svg>
