<svg width="30" height="30" viewBox="0 0 30 30" fill="none" xmlns="http://www.w3.org/2000/svg">
<rect width="30" height="30" rx="15" fill="#F7F7F7"/>
<path d="M8.8667 14.2333H18.0667C19.5123 14.2333 20.2352 14.2333 20.6843 14.6824C21.1334 15.1315 21.1334 15.8544 21.1334 17.3V18.0667C21.1334 20.2351 21.1334 21.3194 20.4597 21.993C19.7861 22.6667 18.7018 22.6667 16.5334 22.6667H13.4667C11.2982 22.6667 10.214 22.6667 9.54035 21.993C8.8667 21.3194 8.8667 20.2351 8.8667 18.0667V14.2333Z" stroke="#444444"/>
<path d="M8.86789 14.2331C8.49699 12.8489 8.31153 12.1567 8.47104 11.5615C8.57553 11.1715 8.78084 10.8159 9.06632 10.5304C9.5021 10.0946 10.1942 9.90916 11.5785 9.53826L16.9474 8.09965C17.4636 7.96135 17.7216 7.8922 17.9477 7.87739C18.8759 7.81654 19.7495 8.32087 20.1609 9.1552C20.2611 9.35837 20.3303 9.61644 20.4686 10.1326C20.5147 10.3046 20.5377 10.3907 20.5426 10.466C20.5629 10.7754 20.3948 11.0666 20.1167 11.2038C20.049 11.2371 19.963 11.2602 19.7909 11.3063L8.86789 14.2331Z" stroke="#444444"/>
<path d="M17.0704 8.05511L16.5815 12.1547" stroke="#444444" stroke-linecap="round"/>
<path d="M12.257 9.3449L11.768 13.4445" stroke="#444444" stroke-linecap="round"/>
<path d="M16.5334 18.45C16.5334 18.1263 16.2289 17.908 15.6198 17.4713C15.0025 17.0288 14.6938 16.8075 14.4636 16.9699C14.2334 17.1324 14.2334 17.5716 14.2334 18.45C14.2334 19.3284 14.2334 19.7676 14.4636 19.9301C14.6938 20.0926 15.0025 19.8713 15.6198 19.4287C16.2289 18.9921 16.5334 18.7737 16.5334 18.45Z" stroke="#444444" stroke-linecap="round"/>
</svg>
