<svg width="40" height="40" viewBox="0 0 40 40" fill="none" xmlns="http://www.w3.org/2000/svg">
<path d="M16 29.3333C16 31.5425 14.2091 33.3333 12 33.3333C9.79086 33.3333 8 31.5425 8 29.3333C8 27.1242 9.79086 25.3333 12 25.3333C14.2091 25.3333 16 27.1242 16 29.3333Z" stroke="#686873"/>
<path d="M32 26.6667C32 28.8758 30.2091 30.6667 28 30.6667C25.7909 30.6667 24 28.8758 24 26.6667C24 24.4575 25.7909 22.6667 28 22.6667C30.2091 22.6667 32 24.4575 32 26.6667Z" stroke="#686873"/>
<path d="M16 29.3333V14.6667" stroke="#686873"/>
<path d="M32 26.6667V12" stroke="#686873"/>
<path d="M24.9801 9.00663L19.6468 10.7844C17.8867 11.3711 17.0067 11.6644 16.5034 12.3628C16 13.0612 16 13.9888 16 15.8441V20L32 14.6667V14.0663C32 10.6897 32 9.00136 30.8926 8.20316C29.7851 7.40496 28.1835 7.93885 24.9801 9.00663Z" stroke="#686873" stroke-linecap="round"/>
</svg>
