<svg width="40" height="40" viewBox="0 0 40 40" fill="none" xmlns="http://www.w3.org/2000/svg">
<ellipse cx="28.6666" cy="10" rx="3.33333" ry="3.33333" stroke="#686873"/>
<path d="M16 26.6667L14.6656 28.2679C13.6827 29.4475 13.1912 30.0373 12.5193 30.352C11.8474 30.6667 11.0796 30.6667 9.54417 30.6667H8" stroke="#686873" stroke-linecap="round"/>
<path d="M11.2475 15.7608L10.877 15.1087H10.877L11.2475 15.7608ZM8.96274 16.1964C8.6026 16.401 8.47653 16.8588 8.68116 17.219C8.88578 17.5791 9.34362 17.7052 9.70376 17.5006L8.96274 16.1964ZM25.0002 17.5005L24.3762 17.9165L24.3762 17.9165L25.0002 17.5005ZM25.0833 17.6251L25.7073 17.2091L25.7073 17.2091L25.0833 17.6251ZM18.625 12.8716L18.7024 12.1256V12.1256L18.625 12.8716ZM18.3196 12.8484L18.2864 13.5976L18.3196 12.8484ZM17.5396 12.8981L17.437 12.1552H17.437L17.5396 12.8981ZM31.9999 20.75C32.4141 20.75 32.7499 20.4142 32.7499 20C32.7499 19.5858 32.4141 19.25 31.9999 19.25V20.75ZM10.877 15.1087L8.96274 16.1964L9.70376 17.5006L11.618 16.4129L10.877 15.1087ZM24.3762 17.9165L24.4593 18.0412L25.7073 17.2091L25.6242 17.0845L24.3762 17.9165ZM18.7024 12.1256C18.5706 12.1119 18.4544 12.1036 18.3528 12.0991L18.2864 13.5976C18.3573 13.6008 18.444 13.6068 18.5476 13.6176L18.7024 12.1256ZM11.618 16.4129C14.6908 14.667 16.1628 13.8453 17.6422 13.6411L17.437 12.1552C15.6039 12.4083 13.8397 13.4254 10.877 15.1087L11.618 16.4129ZM29.5208 20.75H31.9999V19.25H29.5208V20.75ZM18.3528 12.0991C18.0246 12.0846 17.7112 12.1173 17.437 12.1552L17.6422 13.6411C17.8849 13.6075 18.0933 13.5891 18.2864 13.5976L18.3528 12.0991ZM24.4593 18.0412C25.5875 19.7335 27.4869 20.75 29.5208 20.75V19.25C27.9884 19.25 26.5574 18.4841 25.7073 17.2091L24.4593 18.0412ZM25.6242 17.0845C24.0671 14.7488 21.7659 12.4436 18.7024 12.1256L18.5476 13.6176C20.9309 13.865 22.8957 15.6958 24.3762 17.9165L25.6242 17.0845Z" fill="#686873"/>
<path d="M22.6668 15.3333L19.7058 19.0341C18.5905 20.428 18.0328 21.125 17.9439 21.884C17.8939 22.3107 17.9477 22.7431 18.1008 23.1445C18.3731 23.8585 19.0846 24.3975 20.5076 25.4755C21.5914 26.2966 22.1334 26.7072 22.5007 27.2439C22.7101 27.55 22.876 27.8838 22.9935 28.2357C23.1996 28.8525 23.1996 29.5324 23.1996 30.8922V33.3331" stroke="#686873" stroke-width="1.5" stroke-linecap="round"/>
</svg>
