<svg width="40" height="40" viewBox="0 0 40 40" fill="none" xmlns="http://www.w3.org/2000/svg">
<path d="M24.6666 16L24.8954 16.2288C26.6732 18.0065 27.5621 18.8954 27.5621 20C27.5621 21.1046 26.6732 21.9935 24.8954 23.7712L24.6666 24" stroke="#686873" stroke-linecap="round"/>
<path d="M21.7255 13.5605L20 20L18.2745 26.4395" stroke="#686873" stroke-linecap="round"/>
<path d="M15.3333 16L15.1045 16.2288C13.3268 18.0065 12.4379 18.8954 12.4379 20C12.4379 21.1046 13.3268 21.9935 15.1045 23.7712L15.3333 24" stroke="#686873" stroke-linecap="round"/>
<path d="M6.66663 20C6.66663 13.7146 6.66663 10.5719 8.61925 8.61929C10.5719 6.66667 13.7146 6.66667 20 6.66667C26.2854 6.66667 29.4281 6.66667 31.3807 8.61929C33.3333 10.5719 33.3333 13.7146 33.3333 20C33.3333 26.2854 33.3333 29.4281 31.3807 31.3807C29.4281 33.3333 26.2854 33.3333 20 33.3333C13.7146 33.3333 10.5719 33.3333 8.61925 31.3807C6.66663 29.4281 6.66663 26.2854 6.66663 20Z" stroke="#686873"/>
</svg>
