<svg width="40" height="40" viewBox="0 0 40 40" fill="none" xmlns="http://www.w3.org/2000/svg">
<path d="M26.3443 20.9021L25.2175 16.5057C24.6301 14.2138 24.3363 13.0679 23.5694 12.4918C23.3122 12.2987 23.024 12.1554 22.7184 12.0688C21.8069 11.8104 20.771 12.2955 18.699 13.2658C17.1647 13.9843 16.3976 14.3435 15.5971 14.5976C15.3188 14.686 15.0377 14.7647 14.7545 14.8337C13.9397 15.032 13.1035 15.1219 11.4311 15.3016C9.17267 15.5444 8.04345 15.6657 7.37767 16.366C7.15447 16.6007 6.9734 16.8755 6.84309 17.1771C6.45439 18.0769 6.7481 19.2228 7.33553 21.5147L8.46239 25.9111C9.78701 31.0791 14.1911 32.7047 17.1506 33.2077C18.0535 33.3611 18.505 33.4378 19.876 33.0538C21.2471 32.6697 21.6014 32.3673 22.3099 31.7625C24.6324 29.78 27.669 26.0701 26.3443 20.9021Z" stroke="#686873"/>
<path d="M26 26.9614C28.3215 25.9608 30.6387 24.085 31.5376 20.5778L32.6645 16.1814C33.2519 13.8895 33.5456 12.7436 33.1569 11.8438C33.0266 11.5421 32.8456 11.2674 32.6224 11.0326C31.9566 10.3324 30.8274 10.211 28.5689 9.9683C26.8965 9.78856 26.0603 9.69869 25.2456 9.50033C24.9623 9.43136 24.6813 9.35264 24.403 9.2643C23.6025 9.01021 22.8353 8.65096 21.301 7.93246C19.2291 6.96218 18.1931 6.47703 17.2816 6.73545C16.976 6.82209 16.6878 6.96538 16.4307 7.15851C15.6637 7.73459 15.37 8.88051 14.7826 11.1724L13.8499 14.8113" stroke="#686873"/>
<path d="M11.0118 21.7274C11.092 20.9017 11.7067 20.1608 12.5986 19.9218C13.4905 19.6828 14.3933 20.0171 14.8755 20.6921" stroke="#686873" stroke-linecap="round"/>
<path d="M29.5729 15.9142C29.4927 15.0885 28.878 14.3476 27.9861 14.1087C27.0942 13.8697 26.1914 14.2039 25.7092 14.8789" stroke="#686873" stroke-linecap="round"/>
<path d="M18.7396 19.6564C18.8198 18.8307 19.4345 18.0898 20.3264 17.8508C21.2183 17.6119 22.1211 17.9461 22.6033 18.6211" stroke="#686873" stroke-linecap="round"/>
<path d="M18.5916 13.244C18.3508 13.581 17.8824 13.659 17.5454 13.4182C17.2083 13.1774 17.1303 12.709 17.3711 12.372L18.5916 13.244ZM20.0642 12.7621C19.4625 12.6009 18.8851 12.8332 18.5916 13.244L17.3711 12.372C18.0422 11.4327 19.2703 10.9965 20.4524 11.3133L20.0642 12.7621ZM20.8351 13.2675C20.6545 13.0347 20.3901 12.8495 20.0642 12.7621L20.4524 11.3133C21.0985 11.4864 21.6415 11.8597 22.0205 12.3484L20.8351 13.2675Z" fill="#686873"/>
<path d="M21.6008 25.6412C21.6008 25.6412 20.2343 24.627 17.8511 25.2656C15.4678 25.9042 14.7915 27.4658 14.7915 27.4658" stroke="#686873" stroke-width="1.5" stroke-linecap="round"/>
</svg>
