<svg width="40" height="40" viewBox="0 0 40 40" fill="none" xmlns="http://www.w3.org/2000/svg">
<circle cx="20.0001" cy="17.3333" r="9.33333" stroke="#686873"/>
<path d="M9.33325 26.0831C11.8511 28.8963 15.5101 30.6667 19.5826 30.6667C27.1769 30.6667 33.3332 24.5103 33.3332 16.916C33.3332 12.8435 31.5628 9.18451 28.7497 6.66667" stroke="#686873" stroke-linecap="round"/>
<path d="M13.3333 10.0702C14.1135 10.807 15.7208 12.821 15.9081 14.9824C16.0831 17.0027 17.369 18.6443 19.3333 18.6666C20.0881 18.6751 20.8516 18.1096 20.8496 17.3267C20.849 17.0846 20.8105 16.8371 20.7502 16.6094C20.6664 16.2926 20.6589 15.9283 20.8333 15.5555C21.4431 14.2515 22.6426 13.9012 23.5931 13.193C24.0147 12.8789 24.3992 12.5476 24.5688 12.2807C25.0369 11.5438 25.5051 10.0702 25.271 9.33334" stroke="#686873"/>
<path d="M29.3333 18.6667C29.0405 19.4943 28.8333 21.6667 25.5272 21.7012C25.5272 21.7012 22.5995 21.7012 21.7212 23.3563C21.0186 24.6805 21.4285 26.1149 21.7212 26.6667" stroke="#686873"/>
<path d="M20 33.3333V30.6667" stroke="#686873" stroke-width="1.5" stroke-linecap="round"/>
<path d="M19.9999 33.3333H17.3333" stroke="#686873" stroke-width="1.5" stroke-linecap="round"/>
<path d="M22.6667 33.3333H20" stroke="#686873" stroke-width="1.5" stroke-linecap="round"/>
</svg>
