<svg width="40" height="40" viewBox="0 0 40 40" fill="none" xmlns="http://www.w3.org/2000/svg">
<path d="M23.3334 10C23.3334 11.841 21.841 13.3333 20.0001 13.3333C18.1591 13.3333 16.6667 11.841 16.6667 10C16.6667 8.15906 18.1591 6.66667 20.0001 6.66667C21.841 6.66667 23.3334 8.15906 23.3334 10Z" stroke="#686873"/>
<path d="M8 26.6667L11.4518 24.9225C11.7878 24.7527 12 24.4057 12 24.0261C12 20.1069 14.8503 16.7543 18.6756 16.11C19.5464 15.9633 20.4536 15.9633 21.3244 16.11C25.1497 16.7543 28 20.1069 28 24.0261C28 24.4057 28.2122 24.7527 28.5482 24.9225L32 26.6667" stroke="#686873" stroke-linecap="round" stroke-linejoin="round"/>
<path d="M16.6666 25.3333L15.2776 27.1853C15.2352 27.2418 15.214 27.2701 15.1927 27.2971C14.8419 27.7404 14.3593 28.0609 13.8146 28.2121C13.7815 28.2213 13.7471 28.2299 13.6786 28.247L11.6989 28.7419C10.3086 29.0895 9.33325 30.3387 9.33325 31.7718C9.33325 32.6342 10.0324 33.3333 10.8948 33.3333H12.9696C13.7686 33.3333 14.1681 33.3333 14.5559 33.2878C15.4629 33.1812 16.3383 32.8894 17.1278 32.4305C17.4653 32.2343 17.785 31.9946 18.4242 31.5151L18.6666 31.3333M18.6666 31.3333L21.3333 29.3333M18.6666 31.3333L22.0528 32.6032C22.8654 32.9079 23.2718 33.0603 23.6917 33.1584C23.909 33.2092 24.1287 33.249 24.3499 33.2778C24.7776 33.3333 25.2115 33.3333 26.0794 33.3333H29.105C29.9675 33.3333 30.6666 32.6342 30.6666 31.7718C30.6666 30.3387 29.6912 29.0895 28.3009 28.7419L26.3212 28.247C26.2527 28.2298 26.2184 28.2213 26.1852 28.2121C25.6405 28.0609 25.1579 27.7404 24.8072 27.2971C24.7859 27.2701 24.7645 27.2417 24.7222 27.1853L23.3333 25.3333" stroke="#686873" stroke-linecap="round" stroke-linejoin="round"/>
</svg>
